<svg width="31" height="31" viewBox="0 0 31 31" fill="none" xmlns="http://www.w3.org/2000/svg">
<path fill-rule="evenodd" clip-rule="evenodd" d="M15.5 7.42717C10.3281 7.42717 6.13542 11.6198 6.13542 16.7917C6.13542 21.9637 10.3281 26.1563 15.5 26.1563C20.6719 26.1563 24.8646 21.9637 24.8646 16.7917C24.8646 11.6198 20.6719 7.42717 15.5 7.42717ZM4.19792 16.7917C4.19792 10.5498 9.25803 5.48966 15.5 5.48966C21.742 5.48966 26.8021 10.5498 26.8021 16.7917C26.8021 23.0337 21.742 28.0938 15.5 28.0938C9.25803 28.0938 4.19792 23.0337 4.19792 16.7917Z" fill="#C20120"/>
<path fill-rule="evenodd" clip-rule="evenodd" d="M15.5 9.36467C16.035 9.36467 16.4688 9.79839 16.4688 10.3334V16.2548L19.8884 18.3921C20.3421 18.6757 20.4801 19.2734 20.1965 19.7271C19.9129 20.1808 19.3153 20.3187 18.8616 20.0351L14.9866 17.6132C14.7033 17.4362 14.5313 17.1258 14.5313 16.7917V10.3334C14.5313 9.79839 14.965 9.36467 15.5 9.36467Z" fill="#C20120"/>
<path fill-rule="evenodd" clip-rule="evenodd" d="M8.43501 4.48174C8.81333 4.86006 8.81333 5.47344 8.43501 5.85176L5.20585 9.08092C4.82753 9.45925 4.21415 9.45925 3.83583 9.08092C3.45751 8.7026 3.45751 8.08923 3.83583 7.71091L7.06499 4.48174C7.44331 4.10342 8.05669 4.10342 8.43501 4.48174Z" fill="#C20120"/>
<path fill-rule="evenodd" clip-rule="evenodd" d="M22.565 4.48174C22.1867 4.86006 22.1867 5.47344 22.565 5.85176L25.7942 9.08092C26.1725 9.45925 26.7859 9.45925 27.1642 9.08092C27.5425 8.7026 27.5425 8.08923 27.1642 7.71091L23.935 4.48174C23.5567 4.10342 22.9433 4.10342 22.565 4.48174Z" fill="#C20120"/>
</svg>
